<svg width="30" height="30" viewBox="0 0 30 30" fill="none" xmlns="http://www.w3.org/2000/svg">
<path d="M15 12C15.6894 12 16.3721 11.8642 17.0091 11.6004C17.646 11.3365 18.2248 10.9498 18.7123 10.4623C19.1998 9.9748 19.5865 9.39605 19.8504 8.75909C20.1142 8.12213 20.25 7.43944 20.25 6.75C20.25 6.06056 20.1142 5.37787 19.8504 4.74091C19.5865 4.10395 19.1998 3.5252 18.7123 3.03769C18.2248 2.55018 17.646 2.16347 17.0091 1.89963C16.3721 1.6358 15.6894 1.5 15 1.5C13.6076 1.5 12.2723 2.05312 11.2877 3.03769C10.3031 4.02226 9.75 5.35761 9.75 6.75C9.75 8.14239 10.3031 9.47774 11.2877 10.4623C12.2723 11.4469 13.6076 12 15 12ZM1.5 27.6V28.5H28.5V27.6C28.5 24.24 28.5 22.56 27.846 21.276C27.2708 20.1471 26.3529 19.2292 25.224 18.654C23.94 18 22.26 18 18.9 18H11.1C7.74 18 6.06 18 4.776 18.654C3.64708 19.2292 2.72923 20.1471 2.154 21.276C1.5 22.56 1.5 24.24 1.5 27.6Z" stroke="#1ECFA9" stroke-width="2" stroke-linecap="round" stroke-linejoin="round"/>
</svg>
